<svg xmlns="http://www.w3.org/2000/svg" viewBox="0 0 151.58 25.21"><defs><style>.a{fill:#231f20;}</style></defs><title>logo</title><path class="a" d="M272.92,104.41a6.14,6.14,0,0,0-4.08-1.42,6.4,6.4,0,0,0-3.57,1V99.23a1.14,1.14,0,1,0-2.28,0v13.68a1.14,1.14,0,1,0,2.28,0v-4.37a3,3,0,0,1,1-2.42,4.32,4.32,0,0,1,5.16,0,3.08,3.08,0,0,1,1,2.42v4.37a1.14,1.14,0,0,0,2.29,0V108.5a5.27,5.27,0,0,0-1.77-4.1" transform="translate(-135.61 -93.86)"/><path class="a" d="M261,111.77a2.72,2.72,0,0,1-1.81-.45,2.48,2.48,0,0,1-.32-1.65v-4.07H260a1.15,1.15,0,1,0,0-2.29h-1.09V99.25a1.14,1.14,0,1,0-2.28,0v4.06h-1.1a1.15,1.15,0,0,0,0,2.29h1.1V110a4,4,0,0,0,1,3,4.6,4.6,0,0,0,3.44,1.12,1.14,1.14,0,1,0,0-2.29" transform="translate(-135.61 -93.86)"/><path class="a" d="M224.37,107.44h-3c-1,0-2.06-.28-2.06-0.87a0.77,0.77,0,0,1,.44-0.73,6.1,6.1,0,0,1,3.11-.55,6.61,6.61,0,0,1,3.65.94,1.14,1.14,0,0,0,1.29-1.89,8.73,8.73,0,0,0-4.94-1.34,8.19,8.19,0,0,0-4.32.91,3.06,3.06,0,0,0-1.51,2.66c0,1.92,1.71,3.15,4.34,3.15h3c1,0,2.06.28,2.06,0.87a0.76,0.76,0,0,1-.38.73,6.13,6.13,0,0,1-3.16.55,7.3,7.3,0,0,1-3.89-1,1.14,1.14,0,1,0-1.24,1.92,9.4,9.4,0,0,0,5.13,1.32,8.22,8.22,0,0,0,4.4-.91,3,3,0,0,0,1.43-2.66c0-1.92-1.7-3.15-4.34-3.15" transform="translate(-135.61 -93.86)"/><path class="a" d="M282.84,107.44h-3c-1,0-2.06-.28-2.06-0.87a0.78,0.78,0,0,1,.44-0.73,6.12,6.12,0,0,1,3.11-.55,6.56,6.56,0,0,1,3.64.94,1.14,1.14,0,0,0,1.29-1.89,8.72,8.72,0,0,0-4.93-1.34,8.19,8.19,0,0,0-4.32.91,3.05,3.05,0,0,0-1.51,2.66c0,1.92,1.7,3.15,4.34,3.15h3c1,0,2.05.28,2.05,0.87a0.75,0.75,0,0,1-.38.73,6.14,6.14,0,0,1-3.16.55,7.3,7.3,0,0,1-3.89-1,1.14,1.14,0,1,0-1.24,1.92,9.43,9.43,0,0,0,5.13,1.32,8.23,8.23,0,0,0,4.4-.91,3,3,0,0,0,1.43-2.66c0-1.92-1.7-3.15-4.35-3.15" transform="translate(-135.61 -93.86)"/><path class="a" d="M252.57,104.44a6.14,6.14,0,0,0-4.09-1.42,6.37,6.37,0,0,0-3.57,1,1.14,1.14,0,0,0-2.28.11v8.79a1.15,1.15,0,0,0,2.29,0v-4.37a3,3,0,0,1,1-2.41,4.3,4.3,0,0,1,5.16,0,3,3,0,0,1,1,2.41v4.37a1.14,1.14,0,0,0,2.29,0v-4.39a0.08,0.08,0,0,1,0,0,5.3,5.3,0,0,0-1.77-4.09" transform="translate(-135.61 -93.86)"/><path class="a" d="M240.11,103a1.15,1.15,0,0,0-1.15,1.14v4.37a3,3,0,0,1-1,2.42,3.86,3.86,0,0,1-2.58.86,3.91,3.91,0,0,1-2.58-.86,3.07,3.07,0,0,1-1-2.42v-4.37a1.14,1.14,0,0,0-2.29,0v4.41a5.3,5.3,0,0,0,1.77,4.09,6.12,6.12,0,0,0,4.09,1.43,6.34,6.34,0,0,0,3.58-1,0.77,0.77,0,0,0,0,.17,1.18,1.18,0,0,0,0,.28,2.92,2.92,0,0,1-1.07,2.39,5.22,5.22,0,0,1-5.81,0,1.14,1.14,0,0,0-1.44,1.78,7.46,7.46,0,0,0,8.69,0,5.17,5.17,0,0,0,1.93-4.17,1.13,1.13,0,0,0,0-.28,1.14,1.14,0,0,0,0-.28v-8.79a1.14,1.14,0,0,0-1.14-1.14" transform="translate(-135.61 -93.86)"/><path class="a" d="M196.86,111.16a1.05,1.05,0,0,0-.83-0.39,1,1,0,0,0-.65.23,5.85,5.85,0,0,1-6.56,0,3.66,3.66,0,0,1,0-5.49,5.88,5.88,0,0,1,6.56,0,1,1,0,0,0,.65.24,1,1,0,0,0,.83-0.4,1,1,0,0,0,.23-0.77,1,1,0,0,0-.39-0.71,8,8,0,0,0-9.21,0,5.77,5.77,0,0,0,0,8.77,8,8,0,0,0,9.21,0,1.05,1.05,0,0,0,.16-1.48" transform="translate(-135.61 -93.86)"/><path class="a" d="M160.58,111a3.19,3.19,0,0,1-1-1.41l-0.09-.26h5.69a4.21,4.21,0,0,0,2.64-.86,3.27,3.27,0,0,0,1.21-2.61c0-1.29-1.08-3.47-5.15-3.47a7.34,7.34,0,0,0-4.6,1.47,5.76,5.76,0,0,0,0,8.77,7.92,7.92,0,0,0,9.2,0,1,1,0,0,0,.39-0.71,1,1,0,0,0-.23-0.77,1.06,1.06,0,0,0-1.48-.16,5.85,5.85,0,0,1-6.56,0m-1-4a3.24,3.24,0,0,1,1-1.46,5.27,5.27,0,0,1,3.28-1c2.51,0,3,1,3,1.36a1.17,1.17,0,0,1-.43,1,2.12,2.12,0,0,1-1.32.39h-5.7Z" transform="translate(-135.61 -93.86)"/><path class="a" d="M181.66,104.59a1.09,1.09,0,0,0-.39-0.71,7.35,7.35,0,0,0-4.61-1.47,7.58,7.58,0,0,0-4.22,1.19l-0.29.2v-0.35a1.06,1.06,0,0,0-2.11,0V113a1.06,1.06,0,1,0,2.11,0v-4.75a3.35,3.35,0,0,1,1.24-2.75,5.87,5.87,0,0,1,6.56,0,1,1,0,0,0,.66.24,1,1,0,0,0,.83-0.4,1,1,0,0,0,.23-0.77" transform="translate(-135.61 -93.86)"/><path class="a" d="M183.54,102.41a1.05,1.05,0,0,0-1.05,1.05V113a1.06,1.06,0,1,0,2.11,0v-9.55a1.06,1.06,0,0,0-1.06-1.05" transform="translate(-135.61 -93.86)"/><path class="a" d="M209.32,102.41a1.06,1.06,0,0,0-1.05,1v0.35l-0.29-.2a7.63,7.63,0,0,0-4.23-1.19,7.33,7.33,0,0,0-4.6,1.47,5.76,5.76,0,0,0,0,8.77,7.31,7.31,0,0,0,4.6,1.47,7.6,7.6,0,0,0,4.23-1.19l0.28-.19,0,0.34a1.05,1.05,0,0,0,2.1-.06v-9.55a1.06,1.06,0,0,0-1.06-1.05M207,111a5.86,5.86,0,0,1-6.56,0,3.66,3.66,0,0,1,0-5.49,5.88,5.88,0,0,1,6.56,0,3.66,3.66,0,0,1,0,5.49" transform="translate(-135.61 -93.86)"/><path class="a" d="M183.54,99.94a1.2,1.2,0,1,0-1.2-1.2,1.21,1.21,0,0,0,1.2,1.2" transform="translate(-135.61 -93.86)"/><path class="a" d="M153,101.25c0-4.77-3.9-7.39-8.71-7.39s-8.7,2.62-8.7,7.39a6.84,6.84,0,0,0,4.43,6.58l0.5,0.19-2.67,1.56a1.47,1.47,0,0,0-.52,2,1.47,1.47,0,0,0,1.26.72,1.51,1.51,0,0,0,.73-0.2L141.2,111v2.59a3.08,3.08,0,0,1-.49,1.71v0a1.46,1.46,0,1,0,2.35,1.73,6.06,6.06,0,0,0,1-3h0.43a6,6,0,0,0,1,3,1.46,1.46,0,1,0,2.36-1.72l0,0a3.17,3.17,0,0,1-.48-1.71V111l1.87,1.09a1.5,1.5,0,0,0,.74.2,1.45,1.45,0,0,0,1.41-1.83,1.43,1.43,0,0,0-.67-0.89L148.08,108l0.51-.19a6.85,6.85,0,0,0,4.43-6.58m-6,11.15a0.73,0.73,0,0,1-.72.75h-3.92a0.73,0.73,0,0,1-.71-0.75v-2.73a0.74,0.74,0,0,1,.71-0.75h3.92a0.74,0.74,0,0,1,.72.75v2.73Zm1.61-5.94a9,9,0,0,1-4.29,1.54,9,9,0,0,1-4.29-1.54,5.59,5.59,0,0,1-2.84-4.5c0-3.62,2.87-6.05,7.13-6.05s7.13,2.43,7.13,6.05a5.58,5.58,0,0,1-2.84,4.5" transform="translate(-135.61 -93.86)"/><path class="a" d="M141.88,104.58c0.84-.22,1.19-1.62.79-3.12s-1.39-2.54-2.22-2.32-1.19,1.63-.79,3.12,1.39,2.54,2.23,2.32" transform="translate(-135.61 -93.86)"/><path class="a" d="M149,102.25c0.4-1.5,0-2.9-.79-3.12s-1.83.82-2.23,2.32,0,2.9.79,3.12,1.83-.82,2.23-2.32" transform="translate(-135.61 -93.86)"/><path class="a" d="M144.31,105.74a0.56,0.56,0,1,0,.56.56,0.56,0.56,0,0,0-.56-0.56" transform="translate(-135.61 -93.86)"/></svg>